<svg width="16" height="14" viewBox="0 0 16 14" fill="none" xmlns="http://www.w3.org/2000/svg">
<path d="M6.53906 5.59375C6.41927 5.78646 6.28125 5.96094 6.125 6.11719C5.96875 6.27344 5.79167 6.41406 5.59375 6.53906L5.99219 7.50781L5.07031 7.88281L4.67188 6.92188C4.46354 6.97396 4.23958 7 4 7C3.76042 7 3.53646 6.97396 3.32812 6.92188L2.92969 7.88281L2.00781 7.50781L2.40625 6.53906C2.21354 6.41927 2.03906 6.28125 1.88281 6.125C1.72656 5.96875 1.58594 5.79167 1.46094 5.59375L0.492188 5.99219L0.117188 5.07031L1.07812 4.67188C1.02604 4.46354 1 4.23958 1 4C1 3.76042 1.02604 3.53646 1.07812 3.32812L0.117188 2.92969L0.492188 2.00781L1.46094 2.40625C1.70052 2.01562 2.01562 1.70052 2.40625 1.46094L2.00781 0.492188L2.92969 0.117188L3.32812 1.07812C3.53646 1.02604 3.76042 1 4 1C4.23958 1 4.46354 1.02604 4.67188 1.07812L5.07031 0.117188L5.99219 0.492188L5.59375 1.46094C5.98438 1.70052 6.29948 2.01562 6.53906 2.40625L7.50781 2.00781L7.88281 2.92969L6.92188 3.32812C6.97396 3.53646 7 3.76042 7 4C7 4.23958 6.97396 4.46354 6.92188 4.67188L7.88281 5.07031L7.50781 5.99219L6.53906 5.59375ZM4 6C4.27604 6 4.53385 5.94792 4.77344 5.84375C5.01302 5.73958 5.22656 5.59635 5.41406 5.41406C5.60156 5.23177 5.74479 5.02083 5.84375 4.78125C5.94271 4.54167 5.99479 4.28125 6 4C6 3.72396 5.94792 3.46615 5.84375 3.22656C5.73958 2.98698 5.59635 2.77344 5.41406 2.58594C5.23177 2.39844 5.02083 2.25521 4.78125 2.15625C4.54167 2.05729 4.28125 2.00521 4 2C3.72396 2 3.46615 2.05208 3.22656 2.15625C2.98698 2.26042 2.77344 2.40365 2.58594 2.58594C2.39844 2.76823 2.25521 2.97917 2.15625 3.21875C2.05729 3.45833 2.00521 3.71875 2 4C2 4.27604 2.05208 4.53385 2.15625 4.77344C2.26042 5.01302 2.40365 5.22656 2.58594 5.41406C2.76823 5.60156 2.97917 5.74479 3.21875 5.84375C3.45833 5.94271 3.71875 5.99479 4 6ZM15 9.5C15 9.78646 14.9635 10.0755 14.8906 10.3672L15.9609 10.8047L15.5859 11.7344L14.5078 11.2891C14.2005 11.7995 13.7943 12.2057 13.2891 12.5078L13.7344 13.5781L12.8047 13.9609L12.3672 12.8906C12.0755 12.9635 11.7865 13 11.5 13C11.2135 13 10.9245 12.9635 10.6328 12.8906L10.1953 13.9609L9.26562 13.5781L9.71094 12.5078C9.20052 12.2057 8.79427 11.7995 8.49219 11.2891L7.41406 11.7344L7.03906 10.8047L8.10938 10.3672C8.03646 10.0755 8 9.78646 8 9.5C8 9.21354 8.03646 8.92448 8.10938 8.63281L7.03906 8.19531L7.41406 7.26562L8.49219 7.71094C8.79427 7.20573 9.20052 6.79948 9.71094 6.49219L9.26562 5.41406L10.1953 5.03906L10.6328 6.10938C10.9245 6.03646 11.2135 6 11.5 6C11.7865 6 12.0755 6.03646 12.3672 6.10938L12.8047 5.03906L13.7344 5.41406L13.2891 6.49219C13.7943 6.79948 14.2005 7.20573 14.5078 7.71094L15.5859 7.26562L15.9609 8.19531L14.8906 8.63281C14.9635 8.92448 15 9.21354 15 9.5ZM11.5 12C11.8438 12 12.1667 11.9349 12.4688 11.8047C12.7708 11.6745 13.0339 11.4974 13.2578 11.2734C13.4818 11.0495 13.6615 10.7839 13.7969 10.4766C13.9323 10.1693 14 9.84375 14 9.5C14 9.15625 13.9349 8.83333 13.8047 8.53125C13.6745 8.22917 13.4948 7.96615 13.2656 7.74219C13.0365 7.51823 12.7708 7.33854 12.4688 7.20312C12.1667 7.06771 11.8438 7 11.5 7C11.1562 7 10.8333 7.0651 10.5312 7.19531C10.2292 7.32552 9.96354 7.50521 9.73438 7.73438C9.50521 7.96354 9.32552 8.22917 9.19531 8.53125C9.0651 8.83333 9 9.15625 9 9.5C9 9.84375 9.0651 10.1667 9.19531 10.4688C9.32552 10.7708 9.5026 11.0365 9.72656 11.2656C9.95052 11.4948 10.2161 11.6745 10.5234 11.8047C10.8307 11.9349 11.1562 12 11.5 12Z" fill="black"/>
</svg>
