<svg width="25" height="24" viewBox="0 0 25 24" fill="none" xmlns="http://www.w3.org/2000/svg">
<path d="M21.5 12C21.503 13.7868 20.9715 15.5336 19.974 17.016C19.1514 18.2429 18.0391 19.2483 16.7355 19.9432C15.4319 20.638 13.9772 21.001 12.5 21C11.0228 21.001 9.56808 20.638 8.26451 19.9432C6.96093 19.2483 5.84865 18.2429 5.026 17.016C4.24273 15.8484 3.7439 14.5135 3.56951 13.1184C3.39511 11.7233 3.55 10.3067 4.02175 8.98227C4.4935 7.6578 5.269 6.46228 6.28607 5.49154C7.30314 4.52081 8.5335 3.80186 9.87851 3.39233C11.2235 2.9828 12.6458 2.89408 14.0312 3.13329C15.4167 3.3725 16.7269 3.93299 17.8567 4.76981C18.9865 5.60663 19.9046 6.69651 20.5373 7.95209C21.17 9.20767 21.4997 10.594 21.5 12Z" stroke="white" stroke-width="2"/>
<path d="M13.5 9C13.5 9.26522 13.3946 9.51957 13.2071 9.70711C13.0196 9.89464 12.7652 10 12.5 10V12C13.2957 12 14.0587 11.6839 14.6213 11.1213C15.1839 10.5587 15.5 9.79565 15.5 9H13.5ZM12.5 10C12.2348 10 11.9804 9.89464 11.7929 9.70711C11.6054 9.51957 11.5 9.26522 11.5 9H9.5C9.5 9.79565 9.81607 10.5587 10.3787 11.1213C10.9413 11.6839 11.7044 12 12.5 12V10ZM11.5 9C11.5 8.73478 11.6054 8.48043 11.7929 8.29289C11.9804 8.10536 12.2348 8 12.5 8V6C11.7044 6 10.9413 6.31607 10.3787 6.87868C9.81607 7.44129 9.5 8.20435 9.5 9H11.5ZM12.5 8C12.7652 8 13.0196 8.10536 13.2071 8.29289C13.3946 8.48043 13.5 8.73478 13.5 9H15.5C15.5 8.20435 15.1839 7.44129 14.6213 6.87868C14.0587 6.31607 13.2957 6 12.5 6V8ZM5.666 17.856L4.707 17.571L4.552 18.094L4.907 18.507L5.666 17.856ZM19.334 17.856L20.094 18.507L20.448 18.094L20.293 17.571L19.334 17.856ZM9.5 16H15.5V14H9.5V16ZM9.5 14C8.42314 14 7.37502 14.3475 6.51147 14.9909C5.64793 15.6343 5.01508 16.5391 4.707 17.571L6.624 18.141C6.80926 17.5222 7.18915 16.9797 7.70727 16.594C8.22538 16.2083 8.85408 16 9.5 16V14ZM12.5 20C11.3455 20.0013 10.2044 19.7521 9.15561 19.2695C8.10678 18.787 7.17515 18.0826 6.425 17.205L4.907 18.507C5.84489 19.6035 7.00939 20.4836 8.32023 21.0866C9.63108 21.6897 11.0571 22.0013 12.5 22V20ZM15.5 16C16.857 16 18.006 16.902 18.376 18.142L20.293 17.571C19.985 16.5393 19.3513 15.6345 18.4879 14.9912C17.6246 14.3478 16.5767 14.0002 15.5 14V16ZM18.575 17.205C17.8249 18.0826 16.8932 18.787 15.8444 19.2695C14.7956 19.7521 13.6545 20.0013 12.5 20V22C13.9429 22.0013 15.3689 21.6897 16.6798 21.0866C17.9906 20.4836 19.1561 19.6035 20.094 18.507L18.575 17.205Z" fill="white"/>
</svg>
